# xmcd CD database file
#
# Track frame offsets:
#	150
#	16426
#	33361
#	52721
#	68291
#	85982
#	103952
#	119656
#	131838
#	149355
#	172167
#	193619
#	212306
#	228327
#	241935
#	259215
#	277632
#	300214
#	317805
#	334908
#
# Disc length: 4697 seconds
#
# Revision: 2
# Processed by: cddbd v1.4b41PL1 Copyright (c) Steve Scherf et al.
# Submitted via: Feurio! 1.60 - http://www.feurio.com
#
DISCID=14125714,33125714
DTITLE=Various Artist - Slow Rock 23
DYEAR=1900
DGENRE=
TTITLE0=Orange Blue - She's Got That Light
TTITLE1=Toploader - Dancing In The Moonlight
TTITLE2=Phil Collins - You'll Be In My Heart
TTITLE3=Reamonn - Josephine
TTITLE4=Debolah Morgan - Baby I Need Your Love
TTITLE5=Sebastian Deyle - Melody Of Life
TTITLE6=Marc Anthony - When I Dream At Night
TTITLE7=Phil Collins - Two Worlds
TTITLE8=Donots - Whatever Happened To The 80's
TTITLE9=Debolah Morgan - Fall In Love Again
TTITLE10=Texas - Saints
TTITLE11=Band ohne Namen - Take My Heart
TTITLE12=John Davis - I Promised Myself
TTITLE13=Olsen Brothers - Fly On The Wings Of Love
TTITLE14=Magic Voices - Here We Go Again
TTITLE15=The Kelly Family - Mama
TTITLE16=Loona - Salvador Dali
TTITLE17=DJ Bobo - Lies
TTITLE18=Stefanie - Don't Break My Heart
TTITLE19=Westlife - My Love
EXTD=
EXTT0=
EXTT1=
EXTT2=
EXTT3=
EXTT4=
EXTT5=
EXTT6=
EXTT7=
EXTT8=
EXTT9=
EXTT10=
EXTT11=
EXTT12=
EXTT13=
EXTT14=
EXTT15=
EXTT16=
EXTT17=
EXTT18=
EXTT19=
PLAYORDER=
